<?xml version="1.0" standalone="no"?>
<!DOCTYPE svg PUBLIC "-//W3C//DTD SVG 20010904//EN"
 "http://www.w3.org/TR/2001/REC-SVG-20010904/DTD/svg10.dtd">
<svg version="1.0" xmlns="http://www.w3.org/2000/svg"
 width="295.000000pt" height="295.000000pt" viewBox="0 0 295.000000 295.000000"
 preserveAspectRatio="xMidYMid meet">
<metadata>
Created by potrace 1.14, written by Peter Selinger 2001-2017
</metadata>
<g transform="translate(0.000000,295.000000) scale(0.100000,-0.100000)"
fill="#000000" stroke="none">
<path d="M1800 1963 c-8 -3 -22 -11 -30 -18 -9 -8 -71 -18 -150 -25 -267 -23
-554 -83 -789 -165 -57 -20 -109 -34 -115 -32 -6 3 -39 28 -73 56 l-62 52
-125 -3 -126 -3 107 -94 c95 -84 105 -96 88 -105 -158 -92 -271 -192 -307
-273 -136 -307 503 -452 1292 -293 218 44 492 131 631 201 l56 28 24 -25 c23
-23 32 -24 129 -25 58 0 114 0 125 0 18 1 -18 39 -108 112 -20 15 -17 19 69
105 84 83 91 93 103 149 7 33 20 75 29 94 10 24 12 42 6 60 -8 22 -16 26 -57
29 -30 2 -61 12 -83 27 -74 50 -253 95 -438 110 -59 5 -100 14 -120 26 -31 19
-49 22 -76 12z m-56 -127 c8 -19 23 -39 34 -45 50 -27 123 1 136 52 5 22 8 23
80 16 136 -13 264 -47 331 -89 l34 -21 -17 -47 -16 -47 -7 39 c-10 58 -55 96
-115 96 -39 0 -51 -5 -80 -34 -30 -30 -34 -40 -34 -86 0 -46 4 -56 34 -86 29
-29 41 -34 79 -34 30 0 53 7 72 22 l27 21 -6 -21 c-7 -20 -4 -22 34 -22 37 0
43 3 53 30 14 37 27 39 27 4 0 -17 -19 -45 -64 -91 l-64 -66 -172 152 c-94 83
-174 151 -178 151 -7 0 -222 -383 -222 -395 0 -3 38 -5 85 -5 l84 0 42 75 c22
41 45 75 49 75 10 0 155 -114 164 -128 8 -13 -216 -104 -349 -141 -517 -146
-1068 -160 -1332 -35 -119 56 -156 129 -113 218 25 52 102 125 185 175 l56 34
22 -20 c122 -111 331 -293 337 -293 7 0 230 411 230 425 0 3 -38 5 -85 5 l-84
0 -52 -80 -51 -80 -70 62 -70 62 98 34 c240 81 587 145 821 151 51 1 53 0 67
-33z m504 -118 c5 -7 13 -23 16 -35 10 -32 -35 -77 -67 -68 -46 14 -61 63 -30
97 18 21 66 24 81 6z"/>
<path d="M1202 1640 l-43 -79 95 -3 94 -3 -59 -105 c-32 -58 -59 -108 -59
-112 0 -5 36 -8 79 -8 l79 0 106 190 c58 105 106 193 106 195 0 3 -80 5 -178
5 l-177 0 -43 -80z"/>
<path d="M1620 1618 c-29 -57 -72 -137 -95 -178 -66 -120 -68 -111 32 -108
l87 3 102 193 102 192 -88 0 -87 0 -53 -102z"/>
<path d="M2600 1764 c-14 -36 -13 -44 9 -44 19 0 18 -4 -9 -86 l-29 -85 46 3
46 3 27 80 c23 70 30 80 52 83 14 2 28 11 31 20 3 9 8 25 12 35 6 15 -1 17
-84 17 -89 0 -92 -1 -101 -26z"/>
</g>
</svg>
