<?xml version="1.0" standalone="no"?>
<!DOCTYPE svg PUBLIC "-//W3C//DTD SVG 20010904//EN"
 "http://www.w3.org/TR/2001/REC-SVG-20010904/DTD/svg10.dtd">
<svg version="1.0" xmlns="http://www.w3.org/2000/svg"
 width="295.000000pt" height="295.000000pt" viewBox="0 0 295.000000 295.000000"
 preserveAspectRatio="xMidYMid meet">
<g transform="translate(0.000000,295.000000) scale(0.100000,-0.100000)"
fill="#ffffff" stroke="inherit">
<path d="M1800 1963 c-8 -3 -22 -11 -30 -18 -8 -7 -57 -16 -110 -20 -52 -3
-106 -8 -120 -10 -14 -2 -50 -6 -80 -10 -173 -20 -489 -95 -653 -156 -44 -16
-85 -28 -91 -26 -6 3 -39 28 -73 56 l-62 52 -125 -3 -125 -3 119 -105 c66 -58
119 -108 120 -112 0 -13 -25 -4 -30 10 -8 19 -149 -68 -226 -140 -193 -181
-143 -343 131 -427 205 -63 564 -73 895 -25 272 40 608 138 791 230 l66 33 24
-25 c23 -23 32 -24 151 -27 94 -1 124 1 115 9 -7 6 -54 49 -106 94 -65 58 -89
85 -79 89 31 12 89 69 108 106 11 22 20 34 20 27 0 -7 15 -12 38 -12 l37 -1
-84 -79 c-47 -44 -82 -82 -78 -86 10 -10 61 31 125 102 46 50 63 77 72 115 7
28 9 53 6 56 -3 4 2 15 11 26 16 17 23 90 10 103 -2 3 -46 5 -97 5 -97 1 -109
-4 -117 -51 -1 -8 -9 -35 -17 -60 l-14 -45 -1 43 c-2 90 -103 144 -178 96
-102 -65 -58 -224 61 -224 47 0 90 26 101 60 4 11 10 18 15 15 5 -3 19 17 32
44 12 27 25 48 29 46 3 -3 4 6 2 18 -7 37 14 44 95 34 71 -9 72 -9 72 -38 0
-16 -4 -29 -10 -29 -5 0 -10 -6 -10 -14 0 -8 -8 -17 -19 -21 -22 -7 -59 -45
-44 -45 16 0 22 -48 8 -54 -13 -5 -35 12 -35 26 0 5 -9 19 -21 31 l-21 22 -24
-30 c-13 -16 -24 -34 -24 -38 0 -13 -25 -2 -26 11 -3 26 -5 26 -19 2 -21 -37
-19 -40 26 -40 36 0 42 3 52 30 12 31 21 37 32 20 8 -13 -36 -78 -88 -129
l-46 -44 -73 64 c-40 35 -119 106 -175 157 l-101 93 -35 -63 c-141 -255 -187
-339 -187 -343 0 -3 38 -5 85 -5 l84 0 42 75 c22 41 45 75 49 75 12 0 149
-111 189 -154 33 -34 34 -36 12 -36 -12 0 -49 -13 -82 -29 -32 -17 -59 -28
-59 -25 0 2 -17 -4 -37 -15 -21 -10 -42 -19 -48 -20 -5 0 -35 -9 -65 -20 -126
-44 -208 -66 -380 -101 -225 -46 -315 -54 -580 -55 -241 0 -374 11 -420 35 -8
4 -29 10 -45 13 -17 2 -53 15 -80 27 -136 62 -184 153 -133 253 21 42 105 131
158 167 31 21 29 17 -17 -32 -90 -97 -104 -164 -51 -244 42 -61 136 -111 269
-142 124 -29 191 -35 389 -32 186 2 216 4 280 14 25 3 63 8 85 11 84 9 111 14
250 46 22 5 51 12 65 15 14 3 84 23 155 45 72 22 138 42 149 44 10 2 24 9 32
16 8 6 14 8 14 5 0 -4 10 0 22 8 12 9 28 16 36 16 7 0 25 11 40 25 35 33 19
32 -59 -4 -232 -105 -549 -180 -894 -211 -99 -10 -373 -6 -450 5 -86 13 -209
46 -260 70 -58 28 -121 90 -131 130 -10 40 24 114 75 165 48 47 154 122 176
124 11 1 218 -176 339 -288 15 -15 29 -26 31 -24 1 2 37 71 80 153 43 83 95
180 116 218 l38 67 -89 0 -89 0 -52 -80 -51 -80 -66 57 c-112 97 -108 93 -90
93 9 0 18 -5 20 -12 3 -8 32 -3 99 19 238 79 518 133 777 148 99 6 102 6 102
-15 0 -33 44 -70 83 -70 40 0 82 29 91 63 5 23 7 23 83 15 109 -12 234 -43
294 -73 50 -26 68 -27 54 -6 -8 14 -105 58 -145 66 -3 1 -18 4 -35 8 -58 14
-81 18 -150 26 -38 5 -74 6 -79 3 -8 -4 -26 15 -26 30 0 3 15 2 33 -3 17 -4
59 -11 92 -13 85 -7 144 -15 190 -28 22 -6 45 -12 50 -13 21 -3 71 -18 80 -25
17 -13 86 -32 92 -26 3 3 -23 19 -59 36 -83 39 -251 77 -380 86 -72 5 -111 12
-132 25 -31 19 -49 22 -76 12z m76 -48 c27 -27 26 -54 -4 -87 -22 -26 -77 -23
-96 4 -52 74 37 146 100 83z m-140 -20 c-3 -9 -11 -13 -16 -10 -8 5 -7 11 1
21 14 18 24 11 15 -11z m-1095 -144 c41 -33 97 -80 124 -105 113 -101 126
-110 143 -99 10 5 38 41 63 79 28 42 52 69 62 68 10 -1 35 -2 57 -3 l40 -1
-44 -82 c-125 -238 -145 -273 -154 -273 -9 0 -92 68 -153 125 -57 53 -153 136
-176 151 -13 9 -38 31 -56 50 -18 19 -56 56 -85 82 -28 26 -52 50 -52 52 0 5
37 10 101 13 55 3 57 2 130 -57z m1620 -8 c12 -16 12 -17 -1 -7 -8 6 -22 14
-30 17 -13 5 -12 6 1 6 9 1 23 -7 30 -16z m-120 -25 c-30 -53 -17 -94 38 -122
32 -17 61 -7 89 28 20 26 42 35 42 17 0 -13 -67 -62 -90 -66 -11 -2 -35 2 -53
10 -56 23 -76 101 -37 143 29 31 32 27 11 -10z m113 -10 c9 -12 16 -28 16 -36
0 -18 -46 -62 -65 -62 -22 0 -55 37 -55 62 0 53 74 79 104 36z m-260 -60 c28
-23 67 -56 86 -74 19 -18 55 -50 79 -71 25 -21 58 -50 74 -65 16 -16 32 -28
36 -28 7 0 114 -103 141 -135 13 -16 8 -17 -61 -14 -95 3 -107 9 -177 83 -20
22 -45 47 -55 55 -10 9 -28 25 -40 37 -12 11 -43 33 -69 48 l-46 27 -26 -34
c-14 -19 -26 -39 -26 -45 0 -7 -4 -12 -9 -12 -5 0 -12 -11 -15 -25 -8 -33 -37
-47 -91 -43 l-45 3 34 65 c18 36 47 89 65 118 17 29 31 56 31 59 0 10 50 93
57 93 3 0 28 -19 57 -42z m532 -14 c-3 -9 -6 -25 -6 -37 0 -21 -1 -21 -20 3
-24 31 -25 37 -2 43 31 8 34 7 28 -9z"/>
<path d="M2600 1778 c0 -7 -3 -23 -6 -35 -5 -18 -2 -23 14 -23 21 0 21 0 -3
-67 -12 -38 -26 -76 -30 -86 -7 -16 -3 -18 41 -15 l48 3 26 82 c23 76 27 83
51 83 17 0 29 7 32 18 2 9 8 25 12 35 7 15 -1 17 -89 17 -70 0 -96 -3 -96 -12z
m142 -26 c-6 -2 -14 -2 -17 0 -9 6 -36 -42 -55 -98 -11 -31 -25 -63 -31 -70
-12 -14 -29 -10 -29 7 0 6 4 7 10 4 6 -3 7 1 4 9 -3 9 2 36 12 61 13 35 14 49
6 57 -23 23 -12 37 31 40 45 3 90 -3 69 -10z"/>
<path d="M2463 1752 c-25 -4 -38 -18 -47 -52 -7 -24 -6 -24 9 3 12 21 23 27
50 27 45 0 38 -23 -13 -44 -35 -14 -36 -15 -9 -15 25 -1 67 29 67 47 0 17 -35
38 -57 34z"/>
<path d="M1205 1647 c-22 -39 -42 -76 -44 -80 -2 -5 40 -7 93 -5 53 2 96 2 96
0 0 -6 -112 -207 -122 -219 -8 -10 8 -13 75 -13 l85 0 106 190 c58 105 106
193 106 195 0 3 -80 5 -177 5 l-178 0 -40 -73z m348 44 c8 -1 -53 -114 -65
-119 -4 -2 -8 -11 -8 -21 0 -9 -4 -21 -9 -26 -9 -10 -38 -59 -73 -127 -19 -37
-22 -38 -75 -38 l-55 0 26 45 c15 25 38 68 53 97 35 71 27 82 -66 86 -39 2
-71 5 -71 8 0 9 32 69 46 84 10 12 39 15 151 13 76 -1 141 -2 146 -2z"/>
<path d="M1620 1618 c-29 -57 -75 -142 -102 -191 -26 -48 -48 -89 -48 -92 0
-3 41 -5 90 -5 50 0 90 4 90 8 0 4 44 92 99 195 l99 187 -87 0 -87 0 -54 -102z
m158 28 c-142 -289 -151 -300 -230 -294 -37 3 -38 4 -25 28 8 14 44 84 82 155
37 72 72 135 77 142 8 9 102 23 116 17 2 -1 -7 -23 -20 -48z"/>
</g>
</svg>
